PathFileType	4	(X/Y/Z)	s07c0103.trc
DataRate	CameraRate	NumFrames	NumMarkers	Units	OrigDataRate	OrigDataStartFrame	OrigNumFrames
200	200	4	47	mm	200	1750	2000
Frame#	Time	racr			lacr			c7			jug			rlel			rdr			llel			ldr			s2			lic			ric			lasi			rasi			rpsi			lpsi			rgt			lgt			rth1			rth2			rth3			rth4			rlfc			rmfc			rsh1			rsh2			rsh3			rsh4			rcal			rtoe			rmt5			lth1			lth2			lth4			lth3			llfc			lmfc			lsh1			lsh2			lsh3			lsh4			llmal			lcal			ltoe			lmt5			SBIKE			LBIKE			RBIKE			
		X1	Y1	Z1	X2	Y2	Z2	X3	Y3	Z3	X4	Y4	Z4	X5	Y5	Z5	X6	Y6	Z6	X7	Y7	Z7	X8	Y8	Z8	X9	Y9	Z9	X10	Y10	Z10	X11	Y11	Z11	X12	Y12	Z12	X13	Y13	Z13	X14	Y14	Z14	X15	Y15	Z15	X16	Y16	Z16	X17	Y17	Z17	X18	Y18	Z18	X19	Y19	Z19	X20	Y20	Z20	X21	Y21	Z21	X22	Y22	Z22	X23	Y23	Z23	X24	Y24	Z24	X25	Y25	Z25	X26	Y26	Z26	X27	Y27	Z27	X28	Y28	Z28	X29	Y29	Z29	X30	Y30	Z30	X31	Y31	Z31	X32	Y32	Z32	X33	Y33	Z33	X34	Y34	Z34	X35	Y35	Z35	X36	Y36	Z36	X37	Y37	Z37	X38	Y38	Z38	X39	Y39	Z39	X40	Y40	Z40	X41	Y41	Z41	X42	Y42	Z42	X43	Y43	Z43	X44	Y44	Z44	X45	Y45	Z45	X46	Y46	Z46	X47	Y47	Z47	
1750	8.7500	486.727188	1438.261628	-126.093661	469.683446	1434.919472	-371.557817	443.472465	1471.018936	-250.174895	0.000000	0.000000	-0.000000	537.352707	1125.909724	29.954203	715.109012	908.927325	-74.324297	536.176553	1125.455231	-496.602978	724.177899	903.286393	-421.683122	-147.056651	1223.537722	-229.888887	13.747983	1270.788316	-378.480221	35.559310	1264.536928	-85.716450	42.284201	1194.211629	-355.852445	44.995565	1212.356144	-103.509868	-116.745949	1263.672769	-179.924982	-106.689471	1273.226134	-287.349013	-22.685288	1144.315923	-40.285794	-48.122318	1119.038192	-405.459035	120.815131	1071.101419	-50.175311	202.378430	1043.841162	-68.896572	262.110756	983.092508	-74.171712	218.202838	1073.690721	-85.642837	363.213203	893.015467	-119.083390	346.733611	875.618235	-221.398544	326.159943	755.582633	-86.463000	319.101277	667.799317	-101.906286	276.704893	593.003100	-90.749042	331.747733	665.607928	-140.524218	157.536345	424.008492	-106.695380	446.062176	397.262348	-133.932941	371.419515	366.961559	-60.077493	25.131592	1019.671347	-417.948407	100.461617	973.749232	-422.208436	126.538968	997.458092	-413.919596	143.855040	895.804114	-423.378936	249.726054	752.222446	-400.109643	245.739442	733.867513	-304.282043	157.194557	635.292323	-417.734924	124.459108	558.048439	-397.377446	54.008090	501.818702	-401.399866	132.339733	557.549036	-356.039916	-34.279310	405.754661	-396.918612	-110.475287	409.763023	-362.932083	125.481451	240.952743	-359.952119	42.996860	261.927359	-423.969475	-262.335780	965.262842	-236.941428	-82.768872	79.474235	-437.111728	-82.961427	79.263640	-39.362369	
1751	8.7550	486.446788	1437.751525	-127.594440	468.536853	1434.668155	-372.983712	442.669515	1470.474332	-251.545638	0.000000	0.000000	-0.000000	537.825535	1125.977504	29.080242	715.605351	908.672648	-74.478635	535.573371	1125.090247	-496.840383	723.612034	902.923862	-420.979529	-148.168598	1223.195147	-229.054025	12.177009	1270.633573	-377.936989	35.343123	1263.587242	-85.801956	39.878207	1193.581579	-353.751866	44.513621	1211.277553	-102.843443	-117.382749	1263.086338	-178.684910	-107.971800	1272.890776	-286.387265	-23.640511	1142.684057	-40.213743	-49.329147	1119.289670	-405.407656	118.969458	1066.256846	-49.695874	199.855270	1037.113761	-68.381122	258.081008	974.888207	-73.784920	216.338289	1066.660328	-85.041074	357.453215	883.350130	-118.268111	340.986762	866.208570	-220.577496	322.669424	744.754448	-86.030676	317.126623	657.145567	-101.950357	275.889061	581.677950	-90.368414	329.042038	655.407900	-140.300318	159.061873	411.526603	-106.346199	448.006688	388.281802	-133.865683	373.738405	356.889868	-60.006002	25.524172	1020.974240	-416.885855	101.890884	976.939530	-422.272108	127.482002	1001.296298	-413.962417	146.971077	900.138769	-423.924061	255.583096	758.559288	-401.019169	251.988565	739.734751	-305.197941	161.787633	642.759255	-418.234860	127.958584	566.192872	-397.725846	56.579289	511.117807	-401.622138	135.993447	565.662663	-356.449278	-33.134203	416.805314	-396.750005	-108.939696	422.076816	-362.094465	122.976694	248.514241	-359.824709	41.024167	271.392607	-423.937284	-262.321082	965.263091	-236.890808	-82.753811	79.503697	-437.101033	-82.936181	79.273850	-39.352006	
1752	8.7600	486.075377	1437.224023	-129.227152	467.355236	1434.343465	-374.285088	441.773950	1469.963693	-252.888373	0.000000	0.000000	-0.000000	538.332153	1125.964747	28.146709	716.092559	908.434867	-74.690365	534.659221	1124.493016	-496.596237	723.562003	902.948681	-420.938038	-149.269283	1222.616100	-228.259000	10.554018	1270.276743	-377.400141	35.084644	1262.409021	-85.789246	38.370494	1193.347794	-353.390529	44.052148	1210.098168	-102.423905	-118.133166	1262.441557	-177.896123	-109.274889	1272.449975	-285.585826	-24.458811	1140.962748	-39.962691	-50.543795	1119.455201	-405.419775	117.063980	1061.201295	-49.233241	197.216021	1030.170207	-67.874885	253.853120	966.502136	-73.423917	214.393263	1059.321769	-84.533316	351.442673	873.551524	-117.274239	334.814577	856.040879	-219.145474	319.196871	734.649245	-84.844269	315.475176	646.644286	-101.298674	274.540128	570.439796	-89.935556	325.746410	645.360249	-139.935087	159.967453	398.723847	-106.310805	449.241710	379.090761	-133.549386	375.416899	346.780076	-60.005002	26.000798	1022.563294	-416.866622	103.373890	980.300576	-422.420079	128.401343	1005.219300	-414.235175	150.244371	904.442275	-424.321018	261.654578	765.238985	-401.801422	258.465101	746.485097	-305.895408	166.894454	650.567500	-418.677866	131.685321	574.477020	-397.904520	59.579695	520.551867	-401.743406	139.917384	574.027825	-356.820043	-31.201654	428.211158	-397.130005	-106.497024	429.657151	-352.115575	121.015180	256.233548	-359.845866	39.567403	280.965510	-423.912677	-262.324387	965.265316	-236.825302	-82.745042	79.515356	-437.103307	-82.942236	79.215931	-39.327392	
1753	8.7650	485.661876	1436.745970	-130.720940	466.158498	1433.991490	-375.618179	440.823856	1469.338106	-254.201732	0.000000	0.000000	-0.000000	538.844255	1125.945868	27.223660	716.601822	908.220397	-74.996628	533.879312	1123.911070	-496.700239	724.060529	903.432299	-421.592090	-150.364127	1221.931009	-227.598166	8.974896	1269.890505	-376.974840	34.755807	1261.257744	-85.479271	36.314270	1192.429192	-351.826593	43.572007	1208.765135	-102.088215	-118.954307	1261.682379	-177.108968	-110.627507	1271.827897	-284.659368	-25.452286	1139.139965	-39.815324	-51.776614	1119.508921	-405.506505	115.050879	1056.197169	-48.842209	194.410912	1023.000466	-67.492922	249.479124	957.987325	-73.058486	212.276871	1051.740457	-84.121094	344.905802	863.280739	-117.102130	328.328605	845.935082	-218.057717	314.333500	724.058559	-83.796652	312.430363	636.021036	-100.874668	272.585851	559.342147	-89.471229	322.181237	635.470107	-139.634959	160.828047	385.986356	-106.035486	449.946129	369.790828	-133.337055	376.501027	336.487794	-59.931355	26.569404	1023.912895	-416.892584	104.941608	983.572825	-422.679912	129.394240	1009.208152	-414.552499	153.687763	909.016435	-424.709186	267.918052	772.570292	-402.959708	265.053369	753.588952	-306.449589	172.308004	658.607202	-419.132257	136.217436	583.292217	-398.373326	63.096390	530.187076	-401.979854	144.271984	582.465254	-357.171967	-28.891326	439.490352	-397.193827	-104.053912	448.776125	-363.501192	119.581606	264.280240	-360.002430	38.794243	290.442239	-423.795241	-262.342104	965.241781	-236.697497	-82.745693	79.530613	-437.107321	-82.935943	79.314483	-39.321555	
